<?xml version="1.0" standalone="no"?>
<svg viewBox="0 0 200 200" xmlns="http://www.w3.org/2000/svg">
  <path fill="#242329" d="M41.3,-64.8C52.1,-57.4,58.3,-43.4,63.9,-29.6C69.6,-15.8,74.6,-2.2,75.5,12.8C76.3,27.7,72.9,44,63.3,54.5C53.6,64.9,37.7,69.6,22.2,73.1C6.6,76.5,-8.6,78.7,-20.5,73.5C-32.5,68.4,-41.1,55.8,-52.3,44.4C-63.5,33.1,-77.2,23.1,-82.5,9.7C-87.8,-3.7,-84.7,-20.5,-75.6,-32.1C-66.6,-43.8,-51.6,-50.4,-38,-56.4C-24.4,-62.5,-12.2,-68.1,1.5,-70.5C15.3,-72.9,30.6,-72.1,41.3,-64.8Z" transform="translate(100 100)" />
</svg>
