<svg id="visual" viewBox="0 0 900 600" width="900" height="600" xmlns="http://www.w3.org/2000/svg" xmlns:xlink="http://www.w3.org/1999/xlink" version="1.1"><rect x="0" y="0" width="900" height="600" fill="#151418"></rect><path d="M0 424L21.5 435.5C43 447 86 470 128.8 483.2C171.7 496.3 214.3 499.7 257.2 482C300 464.3 343 425.7 385.8 423C428.7 420.3 471.3 453.7 514.2 453C557 452.3 600 417.7 642.8 401.5C685.7 385.3 728.3 387.7 771.2 409.7C814 431.7 857 473.3 878.5 494.2L900 515L900 601L878.5 601C857 601 814 601 771.2 601C728.3 601 685.7 601 642.8 601C600 601 557 601 514.2 601C471.3 601 428.7 601 385.8 601C343 601 300 601 257.2 601C214.3 601 171.7 601 128.8 601C86 601 43 601 21.5 601L0 601Z" fill="#e23655" stroke-linecap="round" stroke-linejoin="miter"></path></svg>