<svg id="visual" viewBox="0 0 900 600" width="900" height="600" xmlns="http://www.w3.org/2000/svg" xmlns:xlink="http://www.w3.org/1999/xlink" version="1.1"><rect x="0" y="0" width="900" height="600" fill="#e23655"></rect><path d="M0 416L18.8 428.2C37.7 440.3 75.3 464.7 112.8 460.2C150.3 455.7 187.7 422.3 225.2 405.5C262.7 388.7 300.3 388.3 337.8 408.7C375.3 429 412.7 470 450.2 481.3C487.7 492.7 525.3 474.3 562.8 476.3C600.3 478.3 637.7 500.7 675.2 507.7C712.7 514.7 750.3 506.3 787.8 504.5C825.3 502.7 862.7 507.3 881.3 509.7L900 512L900 601L881.3 601C862.7 601 825.3 601 787.8 601C750.3 601 712.7 601 675.2 601C637.7 601 600.3 601 562.8 601C525.3 601 487.7 601 450.2 601C412.7 601 375.3 601 337.8 601C300.3 601 262.7 601 225.2 601C187.7 601 150.3 601 112.8 601C75.3 601 37.7 601 18.8 601L0 601Z" fill="#151418" stroke-linecap="round" stroke-linejoin="miter"></path></svg>